<?xml version="1.0" encoding="iso-8859-1"?>
<!-- Uploaded to: SVG Repo, www.svgrepo.com, Generator: SVG Repo Mixer Tools -->
<!DOCTYPE svg PUBLIC "-//W3C//DTD SVG 1.1//EN" "http://www.w3.org/Graphics/SVG/1.1/DTD/svg11.dtd">
<svg fill="#000000" height="800px" width="800px" version="1.1" id="Capa_1" xmlns="http://www.w3.org/2000/svg" xmlns:xlink="http://www.w3.org/1999/xlink" 
	 viewBox="0 0 201.119 201.119" xml:space="preserve">
<path d="M24.424,201.119c-3.461,0-6.498-0.651-9.056-1.986c-0.825-0.431-1.343-1.284-1.343-2.216v-8.647H4.804
	c-0.88,0-1.695-0.463-2.146-1.218c-10.36-17.345,11.631-57.237,56.026-101.633c25.205-25.205,55.793-49.918,81.824-66.105
	c20.449-12.718,46.927-25.774,56.936-15.766c10.01,10.01-3.048,36.486-15.765,56.936c-16.188,26.032-40.901,56.621-66.106,81.825
	l0,0l0,0C78.45,179.433,44.394,201.119,24.424,201.119z M19.026,195.283c13.235,4.709,47.177-10.673,93.012-56.51l0,0
	c24.95-24.95,49.397-55.204,65.396-80.931c16.143-25.958,22.302-44.934,16.476-50.76c-5.827-5.824-24.804,0.335-50.76,16.477
	c-25.726,15.998-55.979,40.444-80.93,65.395C15.425,135.749,0.628,170.12,6.329,183.269h10.197c1.381,0,2.5,1.119,2.5,2.5V195.283z
	 M36.547,188.254c-0.441,0-0.887-0.116-1.292-0.36c-1.182-0.715-1.56-2.252-0.846-3.434l8.337-13.787
	c0.715-1.182,2.253-1.559,3.434-0.846c1.182,0.715,1.56,2.252,0.846,3.434l-8.337,13.787
	C38.219,187.824,37.393,188.254,36.547,188.254z M23.886,179.606c-0.64,0-1.279-0.244-1.768-0.732c-0.977-0.977-0.977-2.559,0-3.535
	l26.14-26.14c0.977-0.977,2.559-0.977,3.535,0s0.977,2.559,0,3.535l-26.14,26.14C25.166,179.362,24.526,179.606,23.886,179.606z
	 M15.241,166.943c-0.846,0-1.671-0.43-2.142-1.206c-0.714-1.182-0.336-2.719,0.846-3.434l13.787-8.338
	c1.179-0.712,2.717-0.336,3.434,0.846c0.714,1.182,0.336,2.719-0.846,3.434l-13.787,8.338
	C16.128,166.827,15.682,166.943,15.241,166.943z M57.734,146.061c-0.64,0-1.279-0.244-1.768-0.732c-0.977-0.977-0.977-2.559,0-3.535
	l125-125c0.977-0.977,2.559-0.977,3.535,0s0.977,2.559,0,3.535l-125,125C59.013,145.817,58.374,146.061,57.734,146.061z"/>
</svg>