<svg xmlns="http://www.w3.org/2000/svg" viewBox="0 0 844.89 577.82"><g id="Layer_2" data-name="Layer 2"><g id="Layer_1-2" data-name="Layer 1"><g><path d="M386.36.17c-.3.3-13.5.8-29.5,1.1-36,.7-70.4,2.4-72.7,3.7-1,.5-1.8.6-1.8.2s-5.5-.5-12.2-.1c-26.3,1.7-45.5,2.9-49.8,3.3-2.5.3-12.1,1.2-21.5,2s-18.3,1.8-20,2-10.2,1.2-19,2-21.4,2.2-28,3.1-18.1,2.1-25.5,2.9S87,22.77,79.86,24s-14.5,2.2-16.3,2.4c-13,1.3-26.5,4.6-29.4,7.2-2,1.8-2.4,4.3-.8,4.3.7,0,.6.8-.1,2.2-1.6,2.9-2.1,19.6-.7,22.1.7,1.3.7,2.2-.1,3-1.3,1.3-1.4,4.9-.2,6.3.9.9,2.1,7.5,2.3,12.6a4.33,4.33,0,0,0,5,3.9c1.3-.2,2.9,4,2.6,6.7-.2,1.7-1,2.8-2.3,3.1-2.5.4-3.6,2.1-2.6,4,.5.8.5,2.8,0,4.5-.7,2.2-.5,3.4.7,4.7,1.4,1.6,1.4,1.8-.3,2.3s-1.9,1.3-1.3,5.5a22.15,22.15,0,0,0,2.3,7.5c1.1,1.6,1.3,2.6.6,2.6s-.8.4,0,1.4c1,1.2.9,1.8-.6,3.3-1.8,1.8-2.7,10.3-1,10.3.4,0,.7.7.7,1.5,0,1,1.1,1.5,3.5,1.5,2.6,0,3.3.3,2.9,1.5-.4.9,0,1.5,1,1.5s1.6.4,1.6,1-1,1-2.2,1c-2.1.1-2.2.1-.5,1.1,2,1.2,17.5.8,19.5-.5a2.3,2.3,0,0,1,2.1-.2c.5.3,1.4-.1,2.1-.9,1.5-1.9,3.1-2,2.4-.2-.4,1.1,1.4,1.1,9.9.2,5.8-.7,11-1.5,11.6-1.9s2.3.6,3.8,2.3,3.7,3.1,5,3.1a6,6,0,0,1,4,2,6.16,6.16,0,0,0,4,2c2.7,0,4.2,2,1.6,2.1a10.12,10.12,0,0,1-2.5,0c-.5,0-.8,1-.8,2.4,0,2.8,2.5,3.4,6.1,1.4a5.94,5.94,0,0,1,4.9,0c1.7.5,3,.6,3.2.1s.9-.6,1.7-.1c1,.7-.4,1.8-5.5,4.4-7.7,3.9-13.2,4.9-36.4,6.7-19.6,1.5-25.8,2.5-37.5,6.1-10.3,3.2-12.6,4.4-12.4,6.3a6.16,6.16,0,0,1-.5,2.8,6.71,6.71,0,0,0,.2,4.6,5.42,5.42,0,0,1-.1,4.7c-.7,1.4-.7,2,.1,2.3s.9.9.2,2.2c-1.3,2.4-.2,7.6,2.6,12.5a27.16,27.16,0,0,1,2.5,5c.1.5.4,1.6.6,2.3a3.25,3.25,0,0,1-.8,2.8c-1,1.3-1,1.7,0,2.3s.5,1-1.3,1.5c-2.6.6-2.6.6-.6,2.6a6.92,6.92,0,0,1,2,4c0,1.1.5,2,1,2a1,1,0,0,1,1,1c0,.6,1.1,2.8,2.5,5,1.7,2.7,3.2,4,4.8,4a9.11,9.11,0,0,1,4.5,1.6,5.87,5.87,0,0,0,4.7,1,10.68,10.68,0,0,1,4.7.2c3.6,1.3,7.3,0,7.2-2.6,0-1.8.5-2.2,2.8-2.2,1.8,0,2.8.5,2.8,1.5a1.56,1.56,0,0,1-1.6,1.5c-.8,0-1.2.4-.9,1s1.9,1,3.4,1A7,7,0,0,1,78,255c3.8,4.3,6.7,4.7,27.9,4.4l20-.4-12.3,4c-6.7,2.2-12,4.4-11.7,4.9s0,1-.6,1.2c-1.5.5-1.5,8.6-.1,10,.7.7.7,1.6-.1,2.9s-.9,2.6,0,5c.8,2.2.9,3.7.1,5.3-.9,2.1-1.8,2.4-11.2,2.9-5.6.4-17.1,1.5-25.6,2.6s-17.7,2.2-20.5,2.5c-12.6,1.4-21.4,2.9-25.5,4.6-15.4,6.1-16.5,6.7-16.2,8.3.2,1-.3,1.6-1,1.5-1-.2-1.3,1.7-1.1,8.1.1,4.6.5,9.1.9,10a11,11,0,0,1,.5,4.3,9.76,9.76,0,0,0,1.9,5.8c1.7,2.4,2.3,4.9,2.6,11,.5,8.9,1.7,13,3.8,13,.9,0,1.2.7.9,1.8-.6,2.4,1.4,4,6.3,5,2.8.6,3.9,1.3,3.8,2.5-.2,1.5,1.5,2.2,4,1.8.5-.1,9.9-.4,21-.7s20.6-1,21.2-1.5c.8-.7,1.4-.6,1.9.1.7,1.2,4.5,1.4,4.5.2a4,4,0,0,0-1.2-2c-1.3-1.3-1.2-1.3,4.5-1.7,3.3-.2,3.7,0,3.7,2.2,0,1.3.4,2.2.9,1.9s1.1,1.3,1.5,3.5c.5,2.9,1.2,4.3,2.6,4.6s1.9,1.2,1.5,3.3c-.6,3.6,1.8,6,3.4,3.3,1-1.7,1.2-1.7,2.8.2,2.8,3.3,5.1,3.7,7.4,1.4,2.6-2.6,3.6-1.9,1.2.8-1.5,1.7-4.3,2.3-15.3,3.6-7.4.9-17.3,1.9-22,2.2-15,.9-43.2,5.5-47.9,7.7-6.7,3.2-8.5,5.4-7.2,8.6.8,2,.7,4-.4,8.1-.9,3.6-1.1,6-.5,7.2a9.73,9.73,0,0,1,1,4.3c0,1.4.4,2.6.9,2.6s.8.9.6,2a5.07,5.07,0,0,0,1.5,4c1.6,1.6,1.6,1.9.3,2.4a1.69,1.69,0,0,0-1,2,2.7,2.7,0,0,1-.9,2.7c-2.1,1.7.1,4.2,2.6,2.9,1.3-.7,2.2-.4,3.6,1.3,1.6,1.8,1.6,1.9.2.8a5.46,5.46,0,0,0-4.4-.7c-2.2.6-2.4.9-1.3,2.2a7.74,7.74,0,0,1,1.5,3.2c.4,3.4,1.4,6.6,2.1,7.3.5.4,4.6.9,9.3,1.3,6.4.4,8.8.9,9.7,2.3a6,6,0,0,1,1.3,2.5c0,.4,1.4.8,3,.8,2.4,0,3-.4,2.8-1.8s.5-1.8,3.6-2c2.1-.2,4.3.1,4.8.6s-.4.9-2.2.9-3.6.5-4.2,1.1c-.9.9-.3,1.2,2.7,1.3,14.2.4,24.1.7,24.6.8.7.1,1.7,7.2,2.5,16.7.2,3.7,1,6.3,1.9,7s1.5,2.5,1.5,4.3c0,2.6.4,3.1,2.4,3.1a5.25,5.25,0,0,1,4,2.5c1.5,2.3,2.3,2.5,8.6,2.5,3.8,0,7.1-.4,7.5-1s1.4-.1,2.5,1a4.23,4.23,0,0,0,4,1.3l2.2-.6-2.2-1.2c-2-1-2-1.3-.5-1.8a24.46,24.46,0,0,1,6.7-.7c3.9,0,4.9.3,4.5,1.4-.6,1.5,1.2,2.6,4,2.6,1.2,0,1.3-.3.3-1.5s-.9-1.8.4-3c1.5-1.5,1.6-1.5,1.6,0,0,.9.6,1.5,1.3,1.3a54.37,54.37,0,0,1,7.4.5c6.1.8,7.6,1.9,7.8,6.2,0,.5.7,3.1,1.4,5.7,1,3.6,1.1,5.5.2,7.9-1.3,3.7-1.5,10.9-.3,10.9.5,0,.9,1.6,1,3.5a17.38,17.38,0,0,0,3,7.8c4.5,6.6,4.5,6.6,1.9,7.8-1.9.8-2.3,1.7-1.9,3.7.5,3,3.8,6.1,6.5,6.2s2,1.7-1.3,2.9-4.1,2.6-.9,1.8c2.7-.7,4.9.1,4.9,1.9s2.9,1.8,4.9,0c1.1-.9,5.4-1.6,13.1-2,11.3-.5,30.6-.9,36.5-.6l3,.1-3,1.3c-2.6,1.2-2.7,1.5-1.2,2.1a12.27,12.27,0,0,0,5.5.1c5.1-.8,20.1-1.7,29.6-1.8,6.9,0,7.9-.2,8.3-1.9.6-2.3,2.3-2.5,2.3-.4,0,1.2,1,1.6,3.8,1.5,2,0,4.4,0,5.2.1s4.2-.2,7.5-.5c9.5-.8,26.3-.9,27.4-.1.6.3,1.1.2,1.1-.3,0-1.6,4.6-3.2,5.9-1.9.8.8,1.1.8,1.1-.1,0-.7,1.4-.3,3.6,1l3.5,2.1,3-2.2c1.6-1.2,2.9-1.8,2.9-1.4s3.8.6,8.5.4c5.8-.2,9,.1,10,.9,1.2,1,1.8,1,2.9.1s2-.9,3.5-.2a9.16,9.16,0,0,0,3.7,1.1c1.4,0,1.4-.3.4-1.6-.8-.8-.9-1.4-.4-1.3a3.08,3.08,0,0,0,1.4-.1c1.3-.5,11-.4,11,.1,0,.3-1,1.1-2.2,1.7l-2.3,1.1h2.2a3.24,3.24,0,0,0,2.7-.8c.5-.8,7.9-2,16.1-2.5,2.2-.2,4.2-.4,4.5-.5a41.44,41.44,0,0,1,4.4-.6c2.9-.3,4.3,0,5.2,1.2,1,1.5,1.4,1.5,2.8.4,1.2-1.1,5.4-1.4,15.6-1.5,11.7-.1,14.2.2,15.6,1.5,1.5,1.6,1.8,1.5,3.5-.2,2.3-2.3,3.3-2.4,5.3-.4,1.1,1.1,2.1,1.3,4,.5,1.4-.5,2.6-.6,2.6-.3s.5.2,1.2-.5.8-1.5-.3-2.8c-1.2-1.6-1.2-1.7.1-.9a25.13,25.13,0,0,1,3.3,2.3c1.5,1.3,2.9,1.4,8.7.6,3.9-.5,7-.6,7-.2s1.4.1,3.1-.7c2.9-1.6,3.1-1.5,3.6.5.3,1.2.9,1.7,1.2,1.2s4.3-1.1,8.9-1.4c7.2-.4,8.7-.2,10.8,1.5s2.7,1.7,4,.6c1.8-1.5,5.2-2,11.9-1.7,2.8.1,6.2.1,7.8.1s2.7.4,2.7.9.9.4,2-.2c1.5-.8,2.1-.6,3,1,1.4,2.6,4.1,2.6,6.3,0a6.43,6.43,0,0,1,4.3-2c2,0,2.5-.4,2-1.6s-.2-1.5,1.6-.9a37.92,37.92,0,0,0,6.2,1.2c3.2.4,3.8.3,3.3-1-.9-2.3,1.6-4.9,4.3-4.5,1.7.2,2.7,1.2,3.3,3.3.8,3,1.1,3.1,6.7,3,3.2,0,5.6-.3,5.4-.6-.5-.9,5.3-.5,6.2.4a5.79,5.79,0,0,0,3.2.7c2.1,0,2.3-.3,1.8-2.5-.5-1.8-.1-2.7,1.5-3.6,2-1,2.1-.9,1.6,1.3-.9,3.5.6,5.2,3.8,4.4a4.94,4.94,0,0,1,4.1.5c1.1.9,1.8.9,2.9-.1s1.8-1,2.9-.1,2.1.9,4.2.1,3-.8,3.2-.1c.5,1.5,4.3,1.3,6.3-.2a2.73,2.73,0,0,0,1.2-2.5c-.3-.7.4-1.2,1.6-1.2s2.1.6,2.1,1.2c0,1,.3.9.9-.1s2.2-1.2,6.5-.7c7,.9,7.3,2.2.5,1.9-2.9-.1-4.9.1-4.5.5,1.3,1.3,13,3,14,2.1.6-.5,1.7-.2,2.7.7,1.6,1.4,2,1.4,4.2-.1s2.6-1.4,4,0c.9.8,1.8,1.1,2.1.7.6-1.1,7.7-.9,9.6.3.8.5,3.8.9,6.7.9,4.3.1,5.4-.3,5.9-1.7.6-1.9,4.1-1.9,3.7,0-.2.7,2,1.4,5.5,1.8,3.1.3,6.9.8,8.4,1,2.3.4,2.8,0,3.3-2.5.7-3.1,1.4-3.4,5.4-2.3,2.3.6,2.3.7.5,1.3-1.5.6-.6,1.1,3.8,2.4,3.2,1,6.2,1.5,6.8,1.1s2.8,0,5,.6a12.09,12.09,0,0,0,7.5.2c1.9-.6,3.7-.7,4-.3s3,.6,6,.3c3.2-.3,6-.1,6.7.5s3.7.9,6.7.8c4.5-.2,5.6-.6,6.2-2.4a3.24,3.24,0,0,1,3.2-2.2,5.3,5.3,0,0,0,3.5-1.3,15.86,15.86,0,0,1,5.4-2.2c4.3-1.1,4.8-1.7,6.7-7.5.7-2.3.8-3.6.1-3.8-1.6-.6-1.1-4.1.9-6.3,2.3-2.5,3.2-9.7,1.4-11.5-.9-.8-1-1.5-.3-1.9,1.2-.7-2.4-4.8-5-5.8-.9-.3-.2-.6,1.5-.7s4.1-.4,5.5-.5,9.7-.6,18.5-.9c18.1-.8,20.3-1.2,22.5-3.8a15.24,15.24,0,0,1,3.9-3.1c1.8-.9,2.8-2.6,3.6-6.2a38.06,38.06,0,0,1,2.2-7.1,3.53,3.53,0,0,0,.3-3.4,2.6,2.6,0,0,1,.3-2.9c.7-.8,1.1-1.5.9-1.5s.2-1.4.8-3c1.4-3.8.9-8.1-.9-8.1a2.67,2.67,0,0,1-2.1-1.5c-.4-.8-1.3-2.6-1.9-3.9-1.8-3.3-.5-20.1,1.5-20.1a1.27,1.27,0,0,0,1.4-1.1c0-.6.9-.8,2.1-.4,4,1.3,9.3-6.4,5.4-7.9a2.39,2.39,0,0,1-1.5-2,1,1,0,0,1,1.4-1,1.78,1.78,0,0,0,2.1-.5c.3-.6.2-1.1-.3-1.1-.9,0,0-7.4,1.6-13a53.82,53.82,0,0,0,1.6-8c.6-4.2.4-4.6-2.6-6.7-3.7-2.4-42.4-11.5-56.8-13.3a89.35,89.35,0,0,1-11.5-1.9c-2.7-.8-2.4-.9,2.5-1a77.24,77.24,0,0,1,11.5.9q6,.9,6.3,0c.2-.6,1.7-1,3.2-1a8.2,8.2,0,0,0,5.4-2.5,8.74,8.74,0,0,1,5.1-2.5c1.4,0,2.5-.4,2.5-1,0-1.2-4.1-5-5.4-5-.6,0-.5-.5.2-1.2s2.6-1.1,4.3-1c3.7.1,7.8-2.6,7.1-4.7-.3-.9.7-.6,2.8.9l3.2,2.3-.7-2.2a4,4,0,0,1,.5-3.6c.7-.8,1-3,.8-4.9-.3-3.1-.1-3.5,2.4-4,2.2-.4,2.8-1.2,3.4-4.3.9-5.2,5.3-11.3,8.2-11.3,1.2,0,2.2-.5,2.2-1.1s2.1-1.9,4.7-3.1c4.3-1.9,4.5-2.2,2.8-3.4a9.24,9.24,0,0,0-4.4-1.5l-2.6-.1,2.5-.8c1.4-.4,1.9-.8,1.1-.9-1.1-.1-1-.6.5-2.2a4.13,4.13,0,0,1,3.8-1.5q1.95.45,3.9-2.1l2.1-2.6,2.3,2.9,2.3,2.9v-4.1c0-2.3.6-4.7,1.4-5.3,2.3-2,3-6.4,1.1-7.7-1.5-1.1-1.5-1.3.1-2.2s1.7-1.4.4-5.2-1.2-4.3.3-5.2a3.52,3.52,0,0,0,.7-5.4c-.7-.7-.5-2.2.5-4.8,1.3-3,1.3-4.1.4-5.2-.6-.8-.9-1.7-.6-2.1.9-.8-3.8-4.3-5.7-4.3-.9,0-1.6-.4-1.6-.8,0-1.2-11.5-3.7-30.2-6.7-2.2-.3-3.8-1.2-3.8-1.9,0-1.8,6.5-5.6,9.6-5.6,1.3,0,2.4-.3,2.4-.8-.1-1.5-2.6-4-4.5-4.4s-1.9-.5-.2-1.3c1.4-.6,2.5-.1,4.2,2.1,1.9,2.4,2.5,2.6,3,1.3a7.69,7.69,0,0,0-.5-4.3c-1.3-3.5-1.3-3.6.6-3.6a2.53,2.53,0,0,0,2.1-2c.4-1.5,1.4-2,4-2,1.9,0,3.2-.4,2.9-.9s0-1.1.8-1.4c2-.8,4.4-15.9,5-30.5l.4-12.3-3.6-3.6c-4-3.9-10.5-7.1-19.2-9.6-5.8-1.6-15.7-3.2-17.7-2.9-.7.2-2.8-.4-4.7-1.2-3.8-1.6-5.7-5.8-4.9-11.2.4-2.4,0-3.4-1.9-4.6-1.2-.8-11.5-3.2-22.8-5.2s-20.8-4-21.2-4.3-.8-1.5-.8-2.9v-2.5l2.6,2a9.56,9.56,0,0,0,4,2.1c1.6,0,1.9-3.1.3-4.7-.7-.7-.5-2.1.7-4.7,1.4-2.8,2.2-3.5,3.7-3,1.7.5,1.7.3.7-1.6-1.1-2.1-1.1-2.2,1.4-1.6,2,.5,2.6.3,2.4-.7-.2-.8,1.1-2.6,2.8-4,3.1-2.6,3.2-2.6,4.5-.8,1.5,2,9.5,3.6,10.5,2,.3-.5-.1-.9-.8-.9-2.3,0,1.5-2,3.8-2a9.41,9.41,0,0,1,4.7,2c3.3,2.6,6.1,2.7,5.4.1-.4-1.7-.1-1.8,2.5-1a12.54,12.54,0,0,1,4.1,1.7c2.2,1.7,5.8,2.1,6.3.7s5.7-1.3,7.6.2c.7.6,3.6,1.1,6.5,1.1,4.8.1,5.2-.1,6.4-3,.9-2.3,1-3.5.1-4.8-.9-1.5-.7-2,1.6-2.9a12.2,12.2,0,0,1,4.7-.8c1.4.1,2-.4,2-1.8,0-1.7.7-2,3.7-1.9,2.1.1,3.5-.2,3.3-.6s.7-1.2,2-1.8c2.9-1.3,3.5-6.1,1.1-8.1-1.2-1-1-1.6,1-3.8,2.3-2.5,2.6-3.6,2.9-11.3a35.05,35.05,0,0,1,.8-6.6c.8-3,.8-3-6.1-5.3a75.4,75.4,0,0,0-13.7-2.7,71.1,71.1,0,0,1-10.4-1.3c-2-.5-6.1-1.2-9.1-1.6-6.5-.7-7.9-1.8-6.2-4.5a5,5,0,0,0,.6-3.5,2.84,2.84,0,0,1,.4-2.8c.6-.7,1.2-4.8,1.3-9.1.2-5.2.8-8,1.6-8.3,1.5-.6,1.7-7.6.3-10.3-.8-1.5-.6-2,1-2.5,2.6-.8,2.6-2.2,0-3a2.89,2.89,0,0,1-2-2.6c0-2.5,4.1-4.5,6.6-3.1,2.1,1.2,4.9-1.1,4-3.3-.4-1.1.2-1.5,2.4-1.5,3.8,0,4.5-1.3,2.4-4.6-1.5-2.2-1.5-2.7-.3-3.5a6.14,6.14,0,0,1,2.8-.9c.9,0,1.1-.6.5-1.8-1-2.4-1.3-7.5-.4-8.7.4-.6.8-3.4.8-6.2.1-4-.3-5.5-1.6-6.2-1-.5-8.3-1.4-16.4-2s-15.9-1.6-17.5-2.2c-3.4-1.3-37.2-3.5-65.8-4.3-11.5-.4-23.7-.9-27-1.1s-13.2-.7-22-1.1-16.2-.7-16.5-.9-11.1-.6-24-1-25.1-.9-27-1.1C592,.67,387-.43,386.36.17ZM62.86,149.87c1.8.8,1.7.9-.7.9-1.5.1-3-.4-3.3-.9C58.16,148.67,60.06,148.67,62.86,149.87Zm73,17.1c.5.5-1.2.9-4.3.9-4.9,0-6.8-1.2-3.9-2.3C129.26,164.87,134.56,165.77,135.86,167Zm10.5,0c0,.5.4.8.9.4a1.22,1.22,0,0,1,1.6.5c.3.6,0,1.3-.9,1.6-1.8.7-5.9-1.4-5.1-2.7S146.36,165.57,146.36,167Zm-5.6,1.4c.3.8.2,1.5-.3,1.5a4.12,4.12,0,0,1-2.1-1.5c-1-1.2-1-1.5.3-1.5A2.67,2.67,0,0,1,140.76,168.37Zm-35.6,88.2a10.28,10.28,0,0,1-3.5,0c-1-.3-.2-.5,1.7-.5S106.06,256.27,105.16,256.57Zm-46.1,116.3,2.8.8-3,.2a66.19,66.19,0,0,0-7,.6l-4,.5,3-2.4c2.1-1.7,3.4-2.2,4.2-1.5A15.33,15.33,0,0,0,59.06,372.87Zm-25,.6c.2.5-.8,1-2.2,1-2.1.2-2.4-.1-1.4-1.2C31.76,371.77,33.56,371.87,34.06,373.47Zm11.3.4c1.1.7.7,1-1.7,1-1.7,0-3.5-.5-3.8-1C39.06,372.57,43.36,372.57,45.36,373.87Zm675,25c0,.5-1.2,1-2.7,1-2.2,0-2.5-.2-1.3-1C718.36,397.57,720.36,397.57,720.36,398.87Zm7.9.6a.71.71,0,0,1-.2,1c-.9.9-5.7-.5-5.7-1.6C722.36,398,727.06,398.47,728.26,399.47Zm7.8,1.5c-1.4.8-2.2.8-3,0s-.3-1.1,1.9-1.1C737.46,400,737.66,400.07,736.06,401Zm5,.5a2,2,0,0,1-1.9.1c-.8-.3-.5-.6.6-.6S741.46,401.17,741.06,401.47Zm-685.3,69.3c.3.5-.1,1.4-.9,2.1-1.3,1-1.5.9-1.5-.9C53.36,469.87,54.76,469.17,55.76,470.77Zm97.9,90.7a2.49,2.49,0,0,1,0,2.1c-.5,1.2-.7,1.2-1.4.1C150.76,561.37,151.86,559.67,153.66,561.47Zm522.6,7.2a4.46,4.46,0,0,1-2.5-.2c-1.3-.5-1.4-.9-.4-2.1s1.4-1.3,2.6.2C676.66,567.57,676.86,568.47,676.26,568.67Zm-6.1.2c-1.3,2.1-4.8,2.8-4.8,1,0-.6,1-1.5,2.3-2C671.06,566.57,671.46,566.67,670.16,568.87Zm-452.4,3.6c2.2.9,2,2.4-.3,2.4-2.1,0-3.4-1.3-2.4-2.4C215.86,571.77,215.86,571.77,217.76,572.47Z"></path><path d="M25.36,472.87c0,.5.7,1,1.5,1s1.5-.5,1.5-1-.7-1-1.5-1S25.36,472.27,25.36,472.87Z"></path><path d="M123.86,511.87c-.4.6.6,1,2.2,1,2.2,0,2.5-.2,1.3-1C125.46,510.67,124.66,510.67,123.86,511.87Z"></path><path d="M542.36,565.77c0,1.1,3.9,2.5,4.7,1.8.3-.3.2-1-.2-1.6C546.06,564.67,542.36,564.47,542.36,565.77Z"></path><path d="M497.36,571.07c0,1.4,3,2.2,4.1,1.1q1.05-1-1.5-1.5C498.56,570.37,497.36,570.57,497.36,571.07Z"></path></g></g></g></svg>